<svg id="java_script_logo" xmlns="http://www.w3.org/2000/svg" viewBox="0 0 276.72 312.82"><defs><style>.cls-1{font-size:185.9px;font-family:ArialMT, Arial;}</style></defs><path d="M7095.44,7349.21l21.53-9.53,32.71,18.7L7267,7290.62V7154l-117.29-68.12L7031.56,7154v136.59l38.82,21.88s21.53,5.65,21.88-14.47.36-133.77.36-133.77l20.47.71v133.77s2.12,15.88-7.06,24-17.29,10.94-23.65,10.94-9.88-.36-9.88-.36l-8.12-1.76-44.47-24s-8.59-9.18-8.59-16.24v-138.7s.83-9.53,7.89-14.12,119.93-69.88,119.93-69.88,11.71-4.94,20.89,0,118.23,68.47,118.23,68.47,9.78,6.7,9.78,15.53V7292s-1.66,11.29-10.13,16.23-118.23,68.48-118.23,68.48-7.77,5.64-18.71,0S7095.44,7349.21,7095.44,7349.21Z" transform="translate(-7011.32 -7066.42)"/><text class="cls-1" transform="translate(109.15 227.26)">S</text></svg>